<svg viewBox="0 0 22 22" fill="none" xmlns="http://www.w3.org/2000/svg">
<g clip-path="url(#clip0_531:323)">
<path d="M21.0521 4.36674C21.0521 2.47161 19.5278 0.947266 17.6327 0.947266H4.36674C2.47161 0.947266 0.947266 2.47161 0.947266 4.36674V17.6739C0.947266 19.569 2.47161 21.0933 4.36674 21.0933H17.6739C19.569 21.0933 21.0933 19.569 21.0933 17.6739V4.36674H21.0521Z" stroke="black" stroke-width="2" stroke-miterlimit="10"/>
<path d="M16.7676 11C16.7676 14.1723 14.2133 16.7266 11.041 16.7266C7.86876 16.7266 5.31445 14.1723 5.31445 11C5.31445 7.82774 7.86876 5.27344 11.041 5.27344C14.1721 5.27344 16.7676 7.82774 16.7676 11Z" stroke="black" stroke-width="2" stroke-miterlimit="10"/>
<path d="M5.43805 11.0002C5.43805 11.0002 8.07475 8.73432 10.5055 11.0002C13.2246 13.5133 16.5616 10.4235 16.5616 10.4235L16.6852 10.1351C16.7264 10.4235 16.7676 10.7118 16.7676 11.0002C16.7676 14.1725 14.2133 16.7268 11.041 16.7268C7.86876 16.7268 5.31445 14.1725 5.31445 11.0002H5.43805Z" fill="black"/>
</g>
<defs>
<clipPath id="clip0_531:323">
<rect width="22" height="22" fill="white"/>
</clipPath>
</defs>
</svg>
