<svg viewBox="0 0 23 19" fill="none" xmlns="http://www.w3.org/2000/svg">
<path d="M0 1C1.3631 1 2.06676 1.61176 2.68759 2.15169C3.23262 2.62565 3.66324 3 4.59993 3C5.53662 3 5.96724 2.62565 6.51227 2.15169C7.13293 1.61176 7.83659 1 9.19968 1C10.563 1 11.2666 1.61176 11.8873 2.15169C12.4323 2.62565 12.8629 3 13.7996 3C14.7365 3 15.1671 2.62565 15.7123 2.15169C16.333 1.61176 17.0366 1 18.3999 1C19.763 1 20.4667 1.61176 21.0875 2.15169C21.6325 2.62565 22.0631 3 23 3" stroke="black" stroke-width="2"/>
<path d="M0 6C1.3631 6 2.06676 6.61176 2.68759 7.15169C3.23262 7.62565 3.66324 8 4.59993 8C5.53662 8 5.96724 7.62565 6.51227 7.15169C7.13293 6.61176 7.83659 6 9.19968 6C10.563 6 11.2666 6.61176 11.8873 7.15169C12.4323 7.62565 12.8629 8 13.7996 8C14.7365 8 15.1671 7.62565 15.7123 7.15169C16.333 6.61176 17.0366 6 18.3999 6C19.763 6 20.4667 6.61176 21.0875 7.15169C21.6325 7.62565 22.0631 8 23 8" stroke="black" stroke-width="2"/>
<path d="M0 11C1.3631 11 2.06676 11.6118 2.68759 12.1517C3.23262 12.6257 3.66324 13 4.59993 13C5.53662 13 5.96724 12.6257 6.51227 12.1517C7.13293 11.6118 7.83659 11 9.19968 11C10.563 11 11.2666 11.6118 11.8873 12.1517C12.4323 12.6257 12.8629 13 13.7996 13C14.7365 13 15.1671 12.6257 15.7123 12.1517C16.333 11.6118 17.0366 11 18.3999 11C19.763 11 20.4667 11.6118 21.0875 12.1517C21.6325 12.6257 22.0631 13 23 13" stroke="black" stroke-width="2"/>
<path d="M0 16C1.3631 16 2.06676 16.6118 2.68759 17.1517C3.23262 17.6257 3.66324 18 4.59993 18C5.53662 18 5.96724 17.6257 6.51227 17.1517C7.13293 16.6118 7.83659 16 9.19968 16C10.563 16 11.2666 16.6118 11.8873 17.1517C12.4323 17.6257 12.8629 18 13.7996 18C14.7365 18 15.1671 17.6257 15.7123 17.1517C16.333 16.6118 17.0366 16 18.3999 16C19.763 16 20.4667 16.6118 21.0875 17.1517C21.6325 17.6257 22.0631 18 23 18" stroke="black" stroke-width="2"/>
</svg>
